<svg xmlns="http://www.w3.org/2000/svg" width="192" height="192" viewBox="0 0 192 192" version="1.1"><path d="M 174.527 46.956 C 174.202 47.482, 173.275 47.659, 172.468 47.349 C 171.620 47.024, 171.005 47.359, 171.011 48.143 C 171.017 48.889, 171.301 51.188, 171.642 53.250 C 172.018 55.524, 172.819 57, 173.676 57 C 174.750 57, 174.933 56.160, 174.436 53.511 C 173.930 50.814, 174.147 49.881, 175.391 49.404 C 176.276 49.064, 177 48.159, 177 47.393 C 177 46.627, 176.577 46, 176.059 46 C 175.541 46, 174.852 46.430, 174.527 46.956 M 161.200 49.200 C 160.540 49.860, 160 51.570, 160 53 C 160 54.430, 160.540 56.140, 161.200 56.800 C 161.860 57.460, 163.885 58, 165.700 58 C 167.775 58, 169 57.508, 169 56.673 C 169 55.768, 168.047 55.486, 166 55.787 C 164.317 56.034, 163 55.773, 163 55.193 C 163 54.624, 164.350 53.862, 166 53.500 C 167.650 53.138, 169 52.292, 169 51.621 C 169 50.949, 168.460 49.860, 167.800 49.200 C 167.140 48.540, 165.655 48, 164.500 48 C 163.345 48, 161.860 48.540, 161.200 49.200 M 130.301 50.343 C 130.585 51.082, 131.135 54.232, 131.524 57.343 C 132.023 61.338, 132.663 63, 133.703 63 C 134.870 63, 135.042 62.116, 134.534 58.750 C 134.182 56.413, 133.656 53.263, 133.367 51.750 C 133.067 50.180, 132.186 49, 131.314 49 C 130.446 49, 130.009 49.580, 130.301 50.343 M 150.653 49.726 C 148.059 50.114, 147.857 50.434, 148.376 53.326 C 148.690 55.072, 149.241 58.413, 149.601 60.750 C 150.031 63.542, 150.764 65, 151.736 65 C 152.805 65, 153.047 64.324, 152.606 62.567 C 152.081 60.474, 152.380 60.089, 154.748 59.817 C 157.148 59.540, 157.540 59.012, 157.815 55.680 C 157.988 53.579, 157.595 51.217, 156.942 50.430 C 156.289 49.644, 155.248 49.067, 154.628 49.150 C 154.007 49.232, 152.219 49.491, 150.653 49.726 M 162.500 51 C 162.160 51.550, 162.809 52, 163.941 52 C 165.073 52, 166 51.550, 166 51 C 166 50.450, 165.352 50, 164.559 50 C 163.766 50, 162.840 50.450, 162.500 51 M 137.949 53.051 C 136.535 54.465, 136.100 55.785, 136.550 57.301 C 136.908 58.511, 137.918 60.063, 138.792 60.750 C 139.667 61.438, 140.971 62, 141.691 62 C 142.411 62, 143.923 61.077, 145.051 59.949 C 146.465 58.535, 146.900 57.215, 146.450 55.699 C 146.092 54.489, 145.082 52.938, 144.208 52.250 C 143.333 51.563, 142.029 51, 141.309 51 C 140.589 51, 139.077 51.923, 137.949 53.051 M 151 53.800 C 151 54.790, 151.540 56.140, 152.200 56.800 C 152.860 57.460, 153.760 58, 154.200 58 C 154.640 58, 155 56.650, 155 55 C 155 52.667, 154.556 52, 153 52 C 151.741 52, 151 52.667, 151 53.800 M 122.751 53.689 C 121.789 53.941, 120.719 55.272, 120.374 56.647 C 120.029 58.022, 120.257 60.268, 120.880 61.637 C 121.798 63.650, 122.619 64.066, 125.180 63.813 C 126.921 63.641, 128.537 62.918, 128.771 62.206 C 129.075 61.279, 128.490 61.090, 126.707 61.537 C 125.338 61.881, 123.940 61.712, 123.600 61.162 C 123.261 60.613, 124.336 59.865, 125.991 59.502 C 127.646 59.138, 129 58.234, 129 57.492 C 129 56.750, 128.293 55.436, 127.429 54.571 C 126.564 53.707, 125.552 53.052, 125.179 53.116 C 124.805 53.180, 123.713 53.438, 122.751 53.689 M 140.187 56.250 C 140.359 58.038, 140.950 59.500, 141.500 59.500 C 142.050 59.500, 142.641 58.038, 142.813 56.250 C 143.051 53.787, 142.733 53, 141.500 53 C 140.267 53, 139.949 53.787, 140.187 56.250 M 92.250 56.525 C 92.628 58.507, 92.385 58.942, 91.116 58.548 C 90.227 58.272, 88.949 58.393, 88.275 58.817 C 87.601 59.241, 86.967 60.468, 86.866 61.544 C 86.766 62.620, 86.754 64.464, 86.842 65.643 C 86.929 66.822, 87.649 68.035, 88.442 68.339 C 89.236 68.644, 91.393 68.648, 93.236 68.349 C 96.587 67.805, 96.587 67.805, 95.653 60.903 C 94.977 55.906, 94.311 54, 93.243 54 C 92.204 54, 91.910 54.748, 92.250 56.525 M 114.521 58.738 C 113.820 62.477, 113.820 62.477, 112.458 59.238 C 111.709 57.457, 110.414 56, 109.580 56 C 108.561 56, 108.270 56.575, 108.694 57.750 C 109.041 58.712, 110.183 60.737, 111.231 62.250 C 112.279 63.763, 113.772 65, 114.549 65 C 115.326 65, 116.195 63.875, 116.481 62.500 C 116.766 61.125, 117.234 58.875, 117.519 57.500 C 117.878 55.771, 117.604 55, 116.630 55 C 115.796 55, 114.937 56.523, 114.521 58.738 M 100.223 57.557 C 99 58.413, 98 60.127, 98 61.366 C 98 62.604, 98.582 64.414, 99.294 65.388 C 100.203 66.631, 101.617 67.060, 104.044 66.829 C 105.945 66.648, 107.275 66.050, 107 65.500 C 106.725 64.950, 105.521 64.624, 104.325 64.776 C 103.129 64.928, 101.879 64.613, 101.547 64.077 C 101.216 63.540, 102.532 62.803, 104.472 62.439 C 106.412 62.075, 108 61.478, 108 61.111 C 108 60.745, 107.299 59.445, 106.443 58.223 C 105.587 57, 104.337 56, 103.666 56 C 102.994 56, 101.445 56.701, 100.223 57.557 M 123 57 C 123 57.550, 123.423 58, 123.941 58 C 124.459 58, 125.160 57.550, 125.500 57 C 125.840 56.450, 125.416 56, 124.559 56 C 123.702 56, 123 56.450, 123 57 M 73.344 60.508 C 72.708 61.879, 72.546 63, 72.983 63 C 73.420 63, 74.070 64.559, 74.427 66.465 C 74.785 68.371, 75.514 70.200, 76.048 70.529 C 76.581 70.859, 77.914 70.845, 79.009 70.497 C 80.104 70.150, 81 69.446, 81 68.933 C 81 68.420, 80.100 68, 79 68 C 77.444 68, 77 67.333, 77 65 C 77 63.350, 77.450 62, 78 62 C 78.550 62, 79 61.550, 79 61 C 79 60.450, 78.325 60, 77.500 60 C 76.675 60, 76 59.550, 76 59 C 76 58.450, 75.662 58.004, 75.250 58.008 C 74.838 58.012, 73.980 59.137, 73.344 60.508 M 101 59.906 C 101 60.405, 101.900 60.577, 103 60.290 C 104.100 60.002, 105 59.594, 105 59.383 C 105 59.173, 104.100 59, 103 59 C 101.900 59, 101 59.408, 101 59.906 M 89.424 61.339 C 89.106 62.166, 89.372 63.827, 90.016 65.029 C 90.789 66.475, 91.521 66.879, 92.177 66.223 C 92.723 65.677, 93.019 64.202, 92.835 62.944 C 92.651 61.686, 91.938 60.471, 91.251 60.245 C 90.563 60.019, 89.741 60.511, 89.424 61.339 M 64.500 62.248 C 62.613 63.369, 62.669 63.471, 65.500 64.058 C 68.500 64.681, 68.500 64.681, 65.847 65.779 C 64.388 66.383, 62.872 67.398, 62.479 68.034 C 62.085 68.671, 62.428 69.856, 63.239 70.668 C 64.269 71.697, 65.754 71.949, 68.149 71.500 C 71.417 70.887, 71.563 70.679, 71.193 67.178 C 70.980 65.155, 70.088 62.938, 69.211 62.250 C 68.335 61.563, 67.366 61.014, 67.059 61.030 C 66.751 61.047, 65.600 61.595, 64.500 62.248 M 52.571 64.571 C 51.707 65.436, 51 67.011, 51 68.071 C 51 69.132, 51.900 70.900, 53 72 C 54.100 73.100, 55.413 74, 55.918 74 C 56.423 74, 57.548 73.727, 58.418 73.393 C 59.288 73.059, 60 72.384, 60 71.893 C 60 71.402, 58.650 71, 57 71 C 55.350 71, 54 70.550, 54 70 C 54 69.450, 55.350 69, 57 69 C 59.498 69, 60 68.599, 60 66.607 C 60 65.291, 59.288 63.941, 58.418 63.607 C 57.548 63.273, 56.230 63, 55.490 63 C 54.749 63, 53.436 63.707, 52.571 64.571 M 46.527 64.956 C 46.202 65.482, 45.275 65.659, 44.468 65.349 C 43.482 64.971, 43 65.436, 43 66.768 C 43 67.858, 43.281 70.156, 43.625 71.875 C 43.969 73.594, 44.840 75, 45.562 75 C 46.502 75, 46.714 74.012, 46.309 71.518 C 45.879 68.868, 46.133 67.886, 47.372 67.411 C 48.267 67.067, 49 66.159, 49 65.393 C 49 64.627, 48.577 64, 48.059 64 C 47.541 64, 46.852 64.430, 46.527 64.956 M 16.119 69.443 C 15.503 71.886, 15 75.036, 15 76.443 C 15 77.849, 15.492 79, 16.094 79 C 16.695 79, 17.423 78.100, 17.710 77 C 18.016 75.831, 19.074 75, 20.256 75 C 21.369 75, 22.818 75.737, 23.477 76.638 C 24.136 77.538, 25.209 78.097, 25.863 77.879 C 26.655 77.615, 25.971 75.406, 23.806 71.242 C 21.804 67.393, 19.923 65, 18.899 65 C 17.767 65, 16.881 66.417, 16.119 69.443 M 36.823 65.709 C 35.351 65.934, 33.613 66.761, 32.961 67.547 C 32.278 68.370, 32.100 69.721, 32.541 70.737 C 32.962 71.707, 33.357 73.175, 33.419 74 C 33.481 74.825, 33.113 76.085, 32.602 76.800 C 31.982 77.667, 32.208 78.637, 33.282 79.710 C 34.554 80.983, 35.585 81.122, 38.196 80.373 C 40.784 79.631, 41.500 78.891, 41.500 76.963 C 41.500 74.916, 40.915 74.415, 38.038 74 C 34.576 73.500, 34.576 73.500, 37.288 72.271 C 38.779 71.596, 40 70.395, 40 69.603 C 40 68.811, 40.273 67.452, 40.607 66.582 C 40.941 65.712, 40.828 65.067, 40.357 65.150 C 39.886 65.232, 38.295 65.484, 36.823 65.709 M 54 66.406 C 54 67.318, 54.700 67.630, 55.989 67.293 C 57.083 67.007, 57.731 66.374, 57.430 65.886 C 57.128 65.399, 56.234 65, 55.441 65 C 54.648 65, 54 65.633, 54 66.406 M 66.250 67.662 C 65.563 67.940, 65 68.579, 65 69.083 C 65 69.588, 65.675 70, 66.500 70 C 67.325 70, 68 69.325, 68 68.500 C 68 67.675, 67.888 67.036, 67.750 67.079 C 67.612 67.122, 66.938 67.385, 66.250 67.662 M 18.531 69.902 C 18.138 71.139, 18.048 72.382, 18.330 72.664 C 18.613 72.946, 19.522 73.025, 20.352 72.838 C 21.637 72.550, 21.667 72.140, 20.553 70.077 C 19.245 67.654, 19.245 67.654, 18.531 69.902 M 34.229 69.188 C 34.447 69.841, 35.159 70.553, 35.813 70.771 C 36.466 70.989, 37 70.454, 37 69.583 C 37 68.713, 36.288 68, 35.417 68 C 34.546 68, 34.011 68.534, 34.229 69.188 M 35.667 76.667 C 35.300 77.033, 35 77.740, 35 78.236 C 35 78.733, 35.977 78.995, 37.172 78.820 C 38.366 78.644, 39.529 77.938, 39.755 77.250 C 39.988 76.542, 39.336 76, 38.250 76 C 37.196 76, 36.033 76.300, 35.667 76.667 M 19 144 C 19 157, 19 157, 22 157 C 24.933 157, 25 156.889, 25 152 C 25 147, 25 147, 29 147 C 32.778 147, 33 146.833, 33 144 C 33 141.167, 32.778 141, 29 141 C 25.400 141, 25 140.750, 25 138.500 C 25 136.204, 25.367 136, 29.500 136 C 33.633 136, 34 135.796, 34 133.500 C 34 131.056, 33.833 131, 26.500 131 C 19 131, 19 131, 19 144 M 71 131.889 C 71 132.448, 73.314 138.326, 76.143 144.953 C 80.413 154.955, 81.646 157, 83.410 157 C 85.159 157, 86.351 155.097, 90.144 146.250 C 92.679 140.338, 95.074 134.456, 95.466 133.180 C 96.121 131.049, 95.917 130.886, 92.957 131.180 C 89.953 131.478, 89.545 131.998, 86.909 138.875 C 85.355 142.931, 83.885 146.449, 83.642 146.692 C 83.398 146.935, 81.844 143.616, 80.188 139.317 C 77.405 132.091, 76.944 131.476, 74.089 131.187 C 72.390 131.014, 71 131.330, 71 131.889 M 100.250 133.115 C 97.793 134.688, 97 135.913, 97 138.133 C 97 140.760, 97.211 140.957, 99 140 C 100.932 138.966, 101 139.240, 101 148.031 C 101 157.133, 101 157.133, 103.750 156.816 C 106.500 156.500, 106.500 156.500, 106.780 143.750 C 107.036 132.082, 106.909 131.001, 105.280 131.017 C 104.301 131.026, 102.037 131.970, 100.250 133.115 M 113.364 132.170 C 112.189 132.738, 110.727 134.304, 110.114 135.649 C 109.501 136.994, 109 139.008, 109 140.124 C 109 141.240, 110.315 143.469, 111.923 145.077 C 113.531 146.685, 115.811 148, 116.990 148 C 118.948 148, 118.810 148.396, 115.388 152.571 C 111.643 157.142, 111.643 157.142, 115.525 156.821 C 118.912 156.541, 119.972 155.773, 123.820 150.807 C 127.076 146.606, 128.365 143.938, 128.738 140.633 C 129.172 136.781, 128.881 135.790, 126.667 133.576 C 124.665 131.575, 123.133 131.015, 119.795 131.068 C 117.433 131.105, 114.539 131.601, 113.364 132.170 M 134 133 C 132.900 134.100, 132 136.070, 132 137.378 C 132 138.685, 132.669 140.310, 133.486 140.988 C 134.786 142.067, 134.724 142.535, 132.986 144.745 C 131.894 146.134, 131 148.072, 131 149.053 C 131 150.034, 131.280 151.565, 131.621 152.455 C 131.963 153.346, 133.515 154.732, 135.072 155.537 C 136.628 156.342, 139.161 156.998, 140.700 156.996 C 142.240 156.994, 144.963 156.101, 146.750 155.011 C 149.327 153.440, 150 152.367, 150 149.829 C 150 147.988, 149.137 145.710, 147.967 144.465 C 146.159 142.541, 146.104 142.159, 147.467 141.028 C 148.310 140.328, 149 138.685, 149 137.378 C 149 136.070, 148.100 134.100, 147 133 C 145.593 131.593, 143.667 131, 140.500 131 C 137.333 131, 135.407 131.593, 134 133 M 157.880 132.007 C 156.989 132.528, 155.527 134.073, 154.630 135.442 C 153.082 137.805, 153.108 137.988, 155.156 139.084 C 156.983 140.061, 157.567 139.899, 158.980 138.026 C 160.087 136.559, 161.464 135.930, 163.074 136.157 C 164.850 136.408, 165.583 137.216, 165.809 139.169 C 166.054 141.291, 164.772 143.264, 159.559 148.791 C 155.951 152.615, 153 156.026, 153 156.372 C 153 156.717, 157.500 157, 163 157 C 173 157, 173 157, 173 154 C 173 151.138, 172.805 151, 168.750 150.995 C 164.500 150.991, 164.500 150.991, 167.586 148.098 C 169.284 146.506, 171.235 143.846, 171.923 142.186 C 172.974 139.648, 172.910 138.613, 171.520 135.683 C 170.610 133.766, 168.884 131.935, 167.683 131.613 C 166.482 131.291, 164.150 131.035, 162.500 131.044 C 160.850 131.053, 158.771 131.487, 157.880 132.007 M 138.701 135.632 C 138.316 136.018, 138 137.110, 138 138.060 C 138 139.009, 138.603 140.018, 139.341 140.300 C 140.078 140.583, 141.247 140.465, 141.939 140.038 C 142.631 139.610, 143.035 138.419, 142.837 137.392 C 142.639 136.364, 141.785 135.390, 140.940 135.227 C 140.094 135.064, 139.087 135.246, 138.701 135.632 M 115.611 137.572 C 115.279 138.437, 115.486 140.040, 116.071 141.133 C 116.724 142.353, 117.939 143.001, 119.216 142.811 C 120.360 142.640, 121.751 141.774, 122.307 140.886 C 122.863 139.998, 123.036 138.536, 122.691 137.636 C 122.307 136.637, 120.923 136, 119.138 136 C 117.402 136, 115.969 136.639, 115.611 137.572 M 44.631 140.702 C 44.245 141.088, 42.370 141.299, 40.465 141.171 C 37 140.937, 37 140.937, 37 148.969 C 37 156.869, 37.041 157, 39.500 157 C 41.825 157, 42 156.659, 42 152.122 C 42 149.078, 42.546 146.792, 43.452 146.040 C 44.251 145.377, 45.770 145.110, 46.828 145.445 C 48.250 145.897, 48.902 145.481, 49.328 143.855 C 49.644 142.644, 49.674 141.281, 49.393 140.826 C 49.112 140.372, 48.084 140, 47.108 140 C 46.132 140, 45.017 140.316, 44.631 140.702 M 53.559 142.350 C 52.022 143.887, 51.005 146.025, 51.014 147.705 C 51.021 149.242, 51.284 151.458, 51.598 152.628 C 51.913 153.799, 53.278 155.261, 54.632 155.878 C 55.986 156.495, 58.108 157, 59.347 157 C 60.586 157, 62.140 156.460, 62.800 155.800 C 63.733 154.867, 64 154.867, 64 155.800 C 64 156.460, 65.125 157, 66.500 157 C 68.959 157, 69 156.869, 69 148.969 C 69 140.937, 69 140.937, 65.750 140.996 C 63.962 141.028, 61.064 140.770, 59.309 140.422 C 56.725 139.910, 55.633 140.276, 53.559 142.350 M 56.998 147.003 C 56.140 148.607, 56.154 149.480, 57.053 150.564 C 57.709 151.354, 59.329 152, 60.654 152 C 61.979 152, 63.345 151.264, 63.691 150.364 C 64.036 149.464, 63.863 148.002, 63.307 147.114 C 62.751 146.226, 61.360 145.360, 60.216 145.189 C 58.904 144.993, 57.715 145.663, 56.998 147.003 M 138.104 146.914 C 137.327 147.407, 136.985 148.517, 137.332 149.422 C 137.674 150.315, 138.675 151.322, 139.555 151.659 C 140.435 151.997, 141.812 151.617, 142.614 150.814 C 143.425 150.004, 143.787 148.609, 143.430 147.678 C 143.076 146.755, 142.047 146.007, 141.143 146.015 C 140.239 146.024, 138.872 146.428, 138.104 146.914" stroke="none" fill="#e7d27f" fill-rule="evenodd"/><path d="M 10.174 8.314 C 8 10.629, 8 10.629, 8 98.140 C 8 185.651, 8 185.651, 10.314 187.826 C 12.629 190, 12.629 190, 96.140 190 C 179.651 190, 179.651 190, 181.826 187.686 C 184 185.371, 184 185.371, 184 97.860 C 184 10.349, 184 10.349, 181.686 8.174 C 179.371 6, 179.371 6, 95.860 6 C 12.349 6, 12.349 6, 10.174 8.314 M 174.527 46.956 C 174.202 47.482, 173.275 47.659, 172.468 47.349 C 171.620 47.024, 171.005 47.359, 171.011 48.143 C 171.017 48.889, 171.301 51.188, 171.642 53.250 C 172.018 55.524, 172.819 57, 173.676 57 C 174.750 57, 174.933 56.160, 174.436 53.511 C 173.930 50.814, 174.147 49.881, 175.391 49.404 C 176.276 49.064, 177 48.159, 177 47.393 C 177 46.627, 176.577 46, 176.059 46 C 175.541 46, 174.852 46.430, 174.527 46.956 M 161.200 49.200 C 160.540 49.860, 160 51.570, 160 53 C 160 54.430, 160.540 56.140, 161.200 56.800 C 161.860 57.460, 163.885 58, 165.700 58 C 167.775 58, 169 57.508, 169 56.673 C 169 55.768, 168.047 55.486, 166 55.787 C 164.317 56.034, 163 55.773, 163 55.193 C 163 54.624, 164.350 53.862, 166 53.500 C 167.650 53.138, 169 52.292, 169 51.621 C 169 50.949, 168.460 49.860, 167.800 49.200 C 167.140 48.540, 165.655 48, 164.500 48 C 163.345 48, 161.860 48.540, 161.200 49.200 M 130.301 50.343 C 130.585 51.082, 131.135 54.232, 131.524 57.343 C 132.023 61.338, 132.663 63, 133.703 63 C 134.870 63, 135.042 62.116, 134.534 58.750 C 134.182 56.413, 133.656 53.263, 133.367 51.750 C 133.067 50.180, 132.186 49, 131.314 49 C 130.446 49, 130.009 49.580, 130.301 50.343 M 150.653 49.726 C 148.059 50.114, 147.857 50.434, 148.376 53.326 C 148.690 55.072, 149.241 58.413, 149.601 60.750 C 150.031 63.542, 150.764 65, 151.736 65 C 152.805 65, 153.047 64.324, 152.606 62.567 C 152.081 60.474, 152.380 60.089, 154.748 59.817 C 157.148 59.540, 157.540 59.012, 157.815 55.680 C 157.988 53.579, 157.595 51.217, 156.942 50.430 C 156.289 49.644, 155.248 49.067, 154.628 49.150 C 154.007 49.232, 152.219 49.491, 150.653 49.726 M 162.500 51 C 162.160 51.550, 162.809 52, 163.941 52 C 165.073 52, 166 51.550, 166 51 C 166 50.450, 165.352 50, 164.559 50 C 163.766 50, 162.840 50.450, 162.500 51 M 137.949 53.051 C 136.535 54.465, 136.100 55.785, 136.550 57.301 C 136.908 58.511, 137.918 60.063, 138.792 60.750 C 139.667 61.438, 140.971 62, 141.691 62 C 142.411 62, 143.923 61.077, 145.051 59.949 C 146.465 58.535, 146.900 57.215, 146.450 55.699 C 146.092 54.489, 145.082 52.938, 144.208 52.250 C 143.333 51.563, 142.029 51, 141.309 51 C 140.589 51, 139.077 51.923, 137.949 53.051 M 151 53.800 C 151 54.790, 151.540 56.140, 152.200 56.800 C 152.860 57.460, 153.760 58, 154.200 58 C 154.640 58, 155 56.650, 155 55 C 155 52.667, 154.556 52, 153 52 C 151.741 52, 151 52.667, 151 53.800 M 122.751 53.689 C 121.789 53.941, 120.719 55.272, 120.374 56.647 C 120.029 58.022, 120.257 60.268, 120.880 61.637 C 121.798 63.650, 122.619 64.066, 125.180 63.813 C 126.921 63.641, 128.537 62.918, 128.771 62.206 C 129.075 61.279, 128.490 61.090, 126.707 61.537 C 125.338 61.881, 123.940 61.712, 123.600 61.162 C 123.261 60.613, 124.336 59.865, 125.991 59.502 C 127.646 59.138, 129 58.234, 129 57.492 C 129 56.750, 128.293 55.436, 127.429 54.571 C 126.564 53.707, 125.552 53.052, 125.179 53.116 C 124.805 53.180, 123.713 53.438, 122.751 53.689 M 140.187 56.250 C 140.359 58.038, 140.950 59.500, 141.500 59.500 C 142.050 59.500, 142.641 58.038, 142.813 56.250 C 143.051 53.787, 142.733 53, 141.500 53 C 140.267 53, 139.949 53.787, 140.187 56.250 M 92.250 56.525 C 92.628 58.507, 92.385 58.942, 91.116 58.548 C 90.227 58.272, 88.949 58.393, 88.275 58.817 C 87.601 59.241, 86.967 60.468, 86.866 61.544 C 86.766 62.620, 86.754 64.464, 86.842 65.643 C 86.929 66.822, 87.649 68.035, 88.442 68.339 C 89.236 68.644, 91.393 68.648, 93.236 68.349 C 96.587 67.805, 96.587 67.805, 95.653 60.903 C 94.977 55.906, 94.311 54, 93.243 54 C 92.204 54, 91.910 54.748, 92.250 56.525 M 114.521 58.738 C 113.820 62.477, 113.820 62.477, 112.458 59.238 C 111.709 57.457, 110.414 56, 109.580 56 C 108.561 56, 108.270 56.575, 108.694 57.750 C 109.041 58.712, 110.183 60.737, 111.231 62.250 C 112.279 63.763, 113.772 65, 114.549 65 C 115.326 65, 116.195 63.875, 116.481 62.500 C 116.766 61.125, 117.234 58.875, 117.519 57.500 C 117.878 55.771, 117.604 55, 116.630 55 C 115.796 55, 114.937 56.523, 114.521 58.738 M 100.223 57.557 C 99 58.413, 98 60.127, 98 61.366 C 98 62.604, 98.582 64.414, 99.294 65.388 C 100.203 66.631, 101.617 67.060, 104.044 66.829 C 105.945 66.648, 107.275 66.050, 107 65.500 C 106.725 64.950, 105.521 64.624, 104.325 64.776 C 103.129 64.928, 101.879 64.613, 101.547 64.077 C 101.216 63.540, 102.532 62.803, 104.472 62.439 C 106.412 62.075, 108 61.478, 108 61.111 C 108 60.745, 107.299 59.445, 106.443 58.223 C 105.587 57, 104.337 56, 103.666 56 C 102.994 56, 101.445 56.701, 100.223 57.557 M 123 57 C 123 57.550, 123.423 58, 123.941 58 C 124.459 58, 125.160 57.550, 125.500 57 C 125.840 56.450, 125.416 56, 124.559 56 C 123.702 56, 123 56.450, 123 57 M 73.344 60.508 C 72.708 61.879, 72.546 63, 72.983 63 C 73.420 63, 74.070 64.559, 74.427 66.465 C 74.785 68.371, 75.514 70.200, 76.048 70.529 C 76.581 70.859, 77.914 70.845, 79.009 70.497 C 80.104 70.150, 81 69.446, 81 68.933 C 81 68.420, 80.100 68, 79 68 C 77.444 68, 77 67.333, 77 65 C 77 63.350, 77.450 62, 78 62 C 78.550 62, 79 61.550, 79 61 C 79 60.450, 78.325 60, 77.500 60 C 76.675 60, 76 59.550, 76 59 C 76 58.450, 75.662 58.004, 75.250 58.008 C 74.838 58.012, 73.980 59.137, 73.344 60.508 M 101 59.906 C 101 60.405, 101.900 60.577, 103 60.290 C 104.100 60.002, 105 59.594, 105 59.383 C 105 59.173, 104.100 59, 103 59 C 101.900 59, 101 59.408, 101 59.906 M 89.424 61.339 C 89.106 62.166, 89.372 63.827, 90.016 65.029 C 90.789 66.475, 91.521 66.879, 92.177 66.223 C 92.723 65.677, 93.019 64.202, 92.835 62.944 C 92.651 61.686, 91.938 60.471, 91.251 60.245 C 90.563 60.019, 89.741 60.511, 89.424 61.339 M 64.500 62.248 C 62.613 63.369, 62.669 63.471, 65.500 64.058 C 68.500 64.681, 68.500 64.681, 65.847 65.779 C 64.388 66.383, 62.872 67.398, 62.479 68.034 C 62.085 68.671, 62.428 69.856, 63.239 70.668 C 64.269 71.697, 65.754 71.949, 68.149 71.500 C 71.417 70.887, 71.563 70.679, 71.193 67.178 C 70.980 65.155, 70.088 62.938, 69.211 62.250 C 68.335 61.563, 67.366 61.014, 67.059 61.030 C 66.751 61.047, 65.600 61.595, 64.500 62.248 M 52.571 64.571 C 51.707 65.436, 51 67.011, 51 68.071 C 51 69.132, 51.900 70.900, 53 72 C 54.100 73.100, 55.413 74, 55.918 74 C 56.423 74, 57.548 73.727, 58.418 73.393 C 59.288 73.059, 60 72.384, 60 71.893 C 60 71.402, 58.650 71, 57 71 C 55.350 71, 54 70.550, 54 70 C 54 69.450, 55.350 69, 57 69 C 59.498 69, 60 68.599, 60 66.607 C 60 65.291, 59.288 63.941, 58.418 63.607 C 57.548 63.273, 56.230 63, 55.490 63 C 54.749 63, 53.436 63.707, 52.571 64.571 M 46.527 64.956 C 46.202 65.482, 45.275 65.659, 44.468 65.349 C 43.482 64.971, 43 65.436, 43 66.768 C 43 67.858, 43.281 70.156, 43.625 71.875 C 43.969 73.594, 44.840 75, 45.562 75 C 46.502 75, 46.714 74.012, 46.309 71.518 C 45.879 68.868, 46.133 67.886, 47.372 67.411 C 48.267 67.067, 49 66.159, 49 65.393 C 49 64.627, 48.577 64, 48.059 64 C 47.541 64, 46.852 64.430, 46.527 64.956 M 16.119 69.443 C 15.503 71.886, 15 75.036, 15 76.443 C 15 77.849, 15.492 79, 16.094 79 C 16.695 79, 17.423 78.100, 17.710 77 C 18.016 75.831, 19.074 75, 20.256 75 C 21.369 75, 22.818 75.737, 23.477 76.638 C 24.136 77.538, 25.209 78.097, 25.863 77.879 C 26.655 77.615, 25.971 75.406, 23.806 71.242 C 21.804 67.393, 19.923 65, 18.899 65 C 17.767 65, 16.881 66.417, 16.119 69.443 M 36.823 65.709 C 35.351 65.934, 33.613 66.761, 32.961 67.547 C 32.278 68.370, 32.100 69.721, 32.541 70.737 C 32.962 71.707, 33.357 73.175, 33.419 74 C 33.481 74.825, 33.113 76.085, 32.602 76.800 C 31.982 77.667, 32.208 78.637, 33.282 79.710 C 34.554 80.983, 35.585 81.122, 38.196 80.373 C 40.784 79.631, 41.500 78.891, 41.500 76.963 C 41.500 74.916, 40.915 74.415, 38.038 74 C 34.576 73.500, 34.576 73.500, 37.288 72.271 C 38.779 71.596, 40 70.395, 40 69.603 C 40 68.811, 40.273 67.452, 40.607 66.582 C 40.941 65.712, 40.828 65.067, 40.357 65.150 C 39.886 65.232, 38.295 65.484, 36.823 65.709 M 54 66.406 C 54 67.318, 54.700 67.630, 55.989 67.293 C 57.083 67.007, 57.731 66.374, 57.430 65.886 C 57.128 65.399, 56.234 65, 55.441 65 C 54.648 65, 54 65.633, 54 66.406 M 66.250 67.662 C 65.563 67.940, 65 68.579, 65 69.083 C 65 69.588, 65.675 70, 66.500 70 C 67.325 70, 68 69.325, 68 68.500 C 68 67.675, 67.888 67.036, 67.750 67.079 C 67.612 67.122, 66.938 67.385, 66.250 67.662 M 18.531 69.902 C 18.138 71.139, 18.048 72.382, 18.330 72.664 C 18.613 72.946, 19.522 73.025, 20.352 72.838 C 21.637 72.550, 21.667 72.140, 20.553 70.077 C 19.245 67.654, 19.245 67.654, 18.531 69.902 M 34.229 69.188 C 34.447 69.841, 35.159 70.553, 35.813 70.771 C 36.466 70.989, 37 70.454, 37 69.583 C 37 68.713, 36.288 68, 35.417 68 C 34.546 68, 34.011 68.534, 34.229 69.188 M 35.667 76.667 C 35.300 77.033, 35 77.740, 35 78.236 C 35 78.733, 35.977 78.995, 37.172 78.820 C 38.366 78.644, 39.529 77.938, 39.755 77.250 C 39.988 76.542, 39.336 76, 38.250 76 C 37.196 76, 36.033 76.300, 35.667 76.667 M 19 144 C 19 157, 19 157, 22 157 C 24.933 157, 25 156.889, 25 152 C 25 147, 25 147, 29 147 C 32.778 147, 33 146.833, 33 144 C 33 141.167, 32.778 141, 29 141 C 25.400 141, 25 140.750, 25 138.500 C 25 136.204, 25.367 136, 29.500 136 C 33.633 136, 34 135.796, 34 133.500 C 34 131.056, 33.833 131, 26.500 131 C 19 131, 19 131, 19 144 M 71 131.889 C 71 132.448, 73.314 138.326, 76.143 144.953 C 80.413 154.955, 81.646 157, 83.410 157 C 85.159 157, 86.351 155.097, 90.144 146.250 C 92.679 140.338, 95.074 134.456, 95.466 133.180 C 96.121 131.049, 95.917 130.886, 92.957 131.180 C 89.953 131.478, 89.545 131.998, 86.909 138.875 C 85.355 142.931, 83.885 146.449, 83.642 146.692 C 83.398 146.935, 81.844 143.616, 80.188 139.317 C 77.405 132.091, 76.944 131.476, 74.089 131.187 C 72.390 131.014, 71 131.330, 71 131.889 M 100.250 133.115 C 97.793 134.688, 97 135.913, 97 138.133 C 97 140.760, 97.211 140.957, 99 140 C 100.932 138.966, 101 139.240, 101 148.031 C 101 157.133, 101 157.133, 103.750 156.816 C 106.500 156.500, 106.500 156.500, 106.780 143.750 C 107.036 132.082, 106.909 131.001, 105.280 131.017 C 104.301 131.026, 102.037 131.970, 100.250 133.115 M 113.364 132.170 C 112.189 132.738, 110.727 134.304, 110.114 135.649 C 109.501 136.994, 109 139.008, 109 140.124 C 109 141.240, 110.315 143.469, 111.923 145.077 C 113.531 146.685, 115.811 148, 116.990 148 C 118.948 148, 118.810 148.396, 115.388 152.571 C 111.643 157.142, 111.643 157.142, 115.525 156.821 C 118.912 156.541, 119.972 155.773, 123.820 150.807 C 127.076 146.606, 128.365 143.938, 128.738 140.633 C 129.172 136.781, 128.881 135.790, 126.667 133.576 C 124.665 131.575, 123.133 131.015, 119.795 131.068 C 117.433 131.105, 114.539 131.601, 113.364 132.170 M 134 133 C 132.900 134.100, 132 136.070, 132 137.378 C 132 138.685, 132.669 140.310, 133.486 140.988 C 134.786 142.067, 134.724 142.535, 132.986 144.745 C 131.894 146.134, 131 148.072, 131 149.053 C 131 150.034, 131.280 151.565, 131.621 152.455 C 131.963 153.346, 133.515 154.732, 135.072 155.537 C 136.628 156.342, 139.161 156.998, 140.700 156.996 C 142.240 156.994, 144.963 156.101, 146.750 155.011 C 149.327 153.440, 150 152.367, 150 149.829 C 150 147.988, 149.137 145.710, 147.967 144.465 C 146.159 142.541, 146.104 142.159, 147.467 141.028 C 148.310 140.328, 149 138.685, 149 137.378 C 149 136.070, 148.100 134.100, 147 133 C 145.593 131.593, 143.667 131, 140.500 131 C 137.333 131, 135.407 131.593, 134 133 M 157.880 132.007 C 156.989 132.528, 155.527 134.073, 154.630 135.442 C 153.082 137.805, 153.108 137.988, 155.156 139.084 C 156.983 140.061, 157.567 139.899, 158.980 138.026 C 160.087 136.559, 161.464 135.930, 163.074 136.157 C 164.850 136.408, 165.583 137.216, 165.809 139.169 C 166.054 141.291, 164.772 143.264, 159.559 148.791 C 155.951 152.615, 153 156.026, 153 156.372 C 153 156.717, 157.500 157, 163 157 C 173 157, 173 157, 173 154 C 173 151.138, 172.805 151, 168.750 150.995 C 164.500 150.991, 164.500 150.991, 167.586 148.098 C 169.284 146.506, 171.235 143.846, 171.923 142.186 C 172.974 139.648, 172.910 138.613, 171.520 135.683 C 170.610 133.766, 168.884 131.935, 167.683 131.613 C 166.482 131.291, 164.150 131.035, 162.500 131.044 C 160.850 131.053, 158.771 131.487, 157.880 132.007 M 138.701 135.632 C 138.316 136.018, 138 137.110, 138 138.060 C 138 139.009, 138.603 140.018, 139.341 140.300 C 140.078 140.583, 141.247 140.465, 141.939 140.038 C 142.631 139.610, 143.035 138.419, 142.837 137.392 C 142.639 136.364, 141.785 135.390, 140.940 135.227 C 140.094 135.064, 139.087 135.246, 138.701 135.632 M 115.611 137.572 C 115.279 138.437, 115.486 140.040, 116.071 141.133 C 116.724 142.353, 117.939 143.001, 119.216 142.811 C 120.360 142.640, 121.751 141.774, 122.307 140.886 C 122.863 139.998, 123.036 138.536, 122.691 137.636 C 122.307 136.637, 120.923 136, 119.138 136 C 117.402 136, 115.969 136.639, 115.611 137.572 M 44.631 140.702 C 44.245 141.088, 42.370 141.299, 40.465 141.171 C 37 140.937, 37 140.937, 37 148.969 C 37 156.869, 37.041 157, 39.500 157 C 41.825 157, 42 156.659, 42 152.122 C 42 149.078, 42.546 146.792, 43.452 146.040 C 44.251 145.377, 45.770 145.110, 46.828 145.445 C 48.250 145.897, 48.902 145.481, 49.328 143.855 C 49.644 142.644, 49.674 141.281, 49.393 140.826 C 49.112 140.372, 48.084 140, 47.108 140 C 46.132 140, 45.017 140.316, 44.631 140.702 M 53.559 142.350 C 52.022 143.887, 51.005 146.025, 51.014 147.705 C 51.021 149.242, 51.284 151.458, 51.598 152.628 C 51.913 153.799, 53.278 155.261, 54.632 155.878 C 55.986 156.495, 58.108 157, 59.347 157 C 60.586 157, 62.140 156.460, 62.800 155.800 C 63.733 154.867, 64 154.867, 64 155.800 C 64 156.460, 65.125 157, 66.500 157 C 68.959 157, 69 156.869, 69 148.969 C 69 140.937, 69 140.937, 65.750 140.996 C 63.962 141.028, 61.064 140.770, 59.309 140.422 C 56.725 139.910, 55.633 140.276, 53.559 142.350 M 56.998 147.003 C 56.140 148.607, 56.154 149.480, 57.053 150.564 C 57.709 151.354, 59.329 152, 60.654 152 C 61.979 152, 63.345 151.264, 63.691 150.364 C 64.036 149.464, 63.863 148.002, 63.307 147.114 C 62.751 146.226, 61.360 145.360, 60.216 145.189 C 58.904 144.993, 57.715 145.663, 56.998 147.003 M 138.104 146.914 C 137.327 147.407, 136.985 148.517, 137.332 149.422 C 137.674 150.315, 138.675 151.322, 139.555 151.659 C 140.435 151.997, 141.812 151.617, 142.614 150.814 C 143.425 150.004, 143.787 148.609, 143.430 147.678 C 143.076 146.755, 142.047 146.007, 141.143 146.015 C 140.239 146.024, 138.872 146.428, 138.104 146.914" stroke="none" fill="#060505" fill-rule="evenodd"/></svg>